<svg id="visual" viewBox="0 0 3000 2000" width="3000" height="2000" xmlns="http://www.w3.org/2000/svg" xmlns:xlink="http://www.w3.org/1999/xlink" version="1.1"><rect x="0" y="0" width="3000" height="2000" fill="#00223d"></rect><defs><linearGradient id="grad1_0" x1="33.3%" y1="0%" x2="100%" y2="100%"><stop offset="20%" stop-color="#ff007c" stop-opacity="1"></stop><stop offset="80%" stop-color="#ff007c" stop-opacity="1"></stop></linearGradient></defs><defs><linearGradient id="grad1_1" x1="33.3%" y1="0%" x2="100%" y2="100%"><stop offset="20%" stop-color="#ff007c" stop-opacity="1"></stop><stop offset="80%" stop-color="#d91c8a" stop-opacity="1"></stop></linearGradient></defs><defs><linearGradient id="grad1_2" x1="33.3%" y1="0%" x2="100%" y2="100%"><stop offset="20%" stop-color="#af2d90" stop-opacity="1"></stop><stop offset="80%" stop-color="#d91c8a" stop-opacity="1"></stop></linearGradient></defs><defs><linearGradient id="grad1_3" x1="33.3%" y1="0%" x2="100%" y2="100%"><stop offset="20%" stop-color="#af2d90" stop-opacity="1"></stop><stop offset="80%" stop-color="#83358d" stop-opacity="1"></stop></linearGradient></defs><defs><linearGradient id="grad1_4" x1="33.3%" y1="0%" x2="100%" y2="100%"><stop offset="20%" stop-color="#593781" stop-opacity="1"></stop><stop offset="80%" stop-color="#83358d" stop-opacity="1"></stop></linearGradient></defs><defs><linearGradient id="grad1_5" x1="33.3%" y1="0%" x2="100%" y2="100%"><stop offset="20%" stop-color="#593781" stop-opacity="1"></stop><stop offset="80%" stop-color="#33346f" stop-opacity="1"></stop></linearGradient></defs><defs><linearGradient id="grad1_6" x1="33.3%" y1="0%" x2="100%" y2="100%"><stop offset="20%" stop-color="#122c57" stop-opacity="1"></stop><stop offset="80%" stop-color="#33346f" stop-opacity="1"></stop></linearGradient></defs><defs><linearGradient id="grad1_7" x1="33.3%" y1="0%" x2="100%" y2="100%"><stop offset="20%" stop-color="#122c57" stop-opacity="1"></stop><stop offset="80%" stop-color="#00223d" stop-opacity="1"></stop></linearGradient></defs><defs><linearGradient id="grad2_0" x1="0%" y1="0%" x2="66.7%" y2="100%"><stop offset="20%" stop-color="#ff007c" stop-opacity="1"></stop><stop offset="80%" stop-color="#ff007c" stop-opacity="1"></stop></linearGradient></defs><defs><linearGradient id="grad2_1" x1="0%" y1="0%" x2="66.7%" y2="100%"><stop offset="20%" stop-color="#d91c8a" stop-opacity="1"></stop><stop offset="80%" stop-color="#ff007c" stop-opacity="1"></stop></linearGradient></defs><defs><linearGradient id="grad2_2" x1="0%" y1="0%" x2="66.7%" y2="100%"><stop offset="20%" stop-color="#d91c8a" stop-opacity="1"></stop><stop offset="80%" stop-color="#af2d90" stop-opacity="1"></stop></linearGradient></defs><defs><linearGradient id="grad2_3" x1="0%" y1="0%" x2="66.7%" y2="100%"><stop offset="20%" stop-color="#83358d" stop-opacity="1"></stop><stop offset="80%" stop-color="#af2d90" stop-opacity="1"></stop></linearGradient></defs><defs><linearGradient id="grad2_4" x1="0%" y1="0%" x2="66.7%" y2="100%"><stop offset="20%" stop-color="#83358d" stop-opacity="1"></stop><stop offset="80%" stop-color="#593781" stop-opacity="1"></stop></linearGradient></defs><defs><linearGradient id="grad2_5" x1="0%" y1="0%" x2="66.7%" y2="100%"><stop offset="20%" stop-color="#33346f" stop-opacity="1"></stop><stop offset="80%" stop-color="#593781" stop-opacity="1"></stop></linearGradient></defs><defs><linearGradient id="grad2_6" x1="0%" y1="0%" x2="66.7%" y2="100%"><stop offset="20%" stop-color="#33346f" stop-opacity="1"></stop><stop offset="80%" stop-color="#122c57" stop-opacity="1"></stop></linearGradient></defs><defs><linearGradient id="grad2_7" x1="0%" y1="0%" x2="66.7%" y2="100%"><stop offset="20%" stop-color="#00223d" stop-opacity="1"></stop><stop offset="80%" stop-color="#122c57" stop-opacity="1"></stop></linearGradient></defs><g transform="translate(3000, 0)"><path d="M0 1802.8C-59.8 1493.7 -119.7 1184.7 -277.7 1216.7C-435.7 1248.7 -692 1621.8 -766.2 1591.1C-840.5 1560.5 -732.7 1126.1 -773.1 969.5C-813.6 812.8 -1002.2 934 -1201.7 958.3C-1401.1 982.6 -1611.3 910.2 -1624.2 782.2C-1637.2 654.2 -1452.8 470.5 -1449.7 330.9C-1446.6 191.3 -1624.7 95.6 -1802.8 0L0 0Z" fill="#05274a"></path><path d="M0 1577.4C-52.4 1307 -104.7 1036.6 -243 1064.6C-381.3 1092.6 -605.5 1419 -670.5 1392.2C-735.4 1365.4 -641.1 985.3 -676.5 848.3C-711.9 711.2 -877 817.2 -1051.5 838.5C-1226 859.8 -1409.9 796.4 -1421.2 684.4C-1432.5 572.4 -1271.2 411.7 -1268.5 289.5C-1265.8 167.3 -1421.6 83.7 -1577.4 0L0 0Z" fill="#223064"></path><path d="M0 1352.1C-44.9 1120.3 -89.7 888.5 -208.3 912.5C-326.8 936.5 -519 1216.3 -574.7 1193.3C-630.4 1170.3 -549.5 844.6 -579.8 727.1C-610.2 609.6 -751.7 700.5 -901.3 718.7C-1050.8 737 -1208.5 682.7 -1218.2 586.6C-1227.9 490.6 -1089.6 352.9 -1087.3 248.2C-1084.9 143.4 -1218.5 71.7 -1352.1 0L0 0Z" fill="#463679"></path><path d="M0 1126.7C-37.4 933.6 -74.8 740.4 -173.6 760.4C-272.3 780.4 -432.5 1013.6 -478.9 994.4C-525.3 975.3 -457.9 703.8 -483.2 605.9C-508.5 508 -626.4 583.7 -751 598.9C-875.7 614.2 -1007.1 568.9 -1015.2 488.9C-1023.2 408.9 -908 294.1 -906.1 206.8C-904.1 119.5 -1015.4 59.8 -1126.7 0L0 0Z" fill="#6e3788"></path><path d="M0 901.4C-29.9 746.9 -59.8 592.4 -138.9 608.4C-217.9 624.4 -346 810.9 -383.1 795.6C-420.2 780.2 -366.3 563 -386.6 484.7C-406.8 406.4 -501.1 467 -600.8 479.2C-700.6 491.3 -805.7 455.1 -812.1 391.1C-818.6 327.1 -726.4 235.3 -724.9 165.4C-723.3 95.6 -812.3 47.8 -901.4 0L0 0Z" fill="#99328f"></path><path d="M0 676C-22.4 560.2 -44.9 444.3 -104.1 456.3C-163.4 468.3 -259.5 608.2 -287.3 596.7C-315.2 585.2 -274.8 422.3 -289.9 363.6C-305.1 304.8 -375.8 350.2 -450.6 359.4C-525.4 368.5 -604.2 341.3 -609.1 293.3C-613.9 245.3 -544.8 176.4 -543.6 124.1C-542.5 71.7 -609.3 35.9 -676 0L0 0Z" fill="#c4258e"></path><path d="M0 450.7C-15 373.4 -29.9 296.2 -69.4 304.2C-108.9 312.2 -173 405.4 -191.6 397.8C-210.1 390.1 -183.2 281.5 -193.3 242.4C-203.4 203.2 -250.6 233.5 -300.4 239.6C-350.3 245.7 -402.8 227.6 -406.1 195.5C-409.3 163.5 -363.2 117.6 -362.4 82.7C-361.6 47.8 -406.2 23.9 -450.7 0L0 0Z" fill="#ed0e84"></path><path d="M0 225.3C-7.5 186.7 -15 148.1 -34.7 152.1C-54.5 156.1 -86.5 202.7 -95.8 198.9C-105.1 195.1 -91.6 140.8 -96.6 121.2C-101.7 101.6 -125.3 116.7 -150.2 119.8C-175.1 122.8 -201.4 113.8 -203 97.8C-204.6 81.8 -181.6 58.8 -181.2 41.4C-180.8 23.9 -203.1 12 -225.3 0L0 0Z" fill="#ff007c"></path></g><g transform="translate(0, 2000)"><path d="M0 -1802.8C80.5 -1504.6 161 -1206.5 247.7 -1085.1C334.4 -963.7 427.2 -1019.2 472.1 -980.3C516.9 -941.3 513.6 -808 649.1 -813.9C784.5 -819.8 1058.5 -964.8 1211.8 -966.4C1365.1 -968 1397.7 -826.1 1480.3 -712.9C1562.9 -599.7 1695.5 -515.2 1757.6 -401.2C1819.7 -287.1 1811.2 -143.6 1802.8 0L0 0Z" fill="#05274a"></path><path d="M0 -1577.4C70.4 -1316.5 140.9 -1055.6 216.7 -949.5C292.6 -843.3 373.8 -891.8 413.1 -857.7C452.3 -823.7 449.4 -707 567.9 -712.2C686.4 -717.3 926.2 -844.2 1060.4 -845.6C1194.5 -847 1223 -722.8 1295.3 -623.8C1367.5 -524.7 1483.6 -450.8 1537.9 -351C1592.2 -251.2 1584.8 -125.6 1577.4 0L0 0Z" fill="#223064"></path><path d="M0 -1352.1C60.4 -1128.5 120.7 -904.8 185.7 -813.8C250.8 -722.8 320.4 -764.4 354 -735.2C387.7 -706 385.2 -606 486.8 -610.4C588.3 -614.8 793.9 -723.6 908.9 -724.8C1023.9 -726 1048.3 -619.6 1110.2 -534.7C1172.2 -449.8 1271.6 -386.4 1318.2 -300.9C1364.7 -215.3 1358.4 -107.7 1352.1 0L0 0Z" fill="#463679"></path><path d="M0 -1126.7C50.3 -940.4 100.6 -754 154.8 -678.2C209 -602.3 267 -637 295 -612.7C323.1 -588.3 321 -505 405.7 -508.7C490.3 -512.4 661.6 -603 757.4 -604C853.2 -605 873.6 -516.3 925.2 -445.5C976.8 -374.8 1059.7 -322 1098.5 -250.7C1137.3 -179.5 1132 -89.7 1126.7 0L0 0Z" fill="#6e3788"></path><path d="M0 -901.4C40.2 -752.3 80.5 -603.2 123.8 -542.5C167.2 -481.9 213.6 -509.6 236 -490.1C258.4 -470.7 256.8 -404 324.5 -406.9C392.2 -409.9 529.3 -482.4 605.9 -483.2C682.6 -484 698.9 -413 740.1 -356.4C781.4 -299.8 847.7 -257.6 878.8 -200.6C909.8 -143.6 905.6 -71.8 901.4 0L0 0Z" fill="#99328f"></path><path d="M0 -676C30.2 -564.2 60.4 -452.4 92.9 -406.9C125.4 -361.4 160.2 -382.2 177 -367.6C193.8 -353 192.6 -303 243.4 -305.2C294.2 -307.4 396.9 -361.8 454.4 -362.4C511.9 -363 524.1 -309.8 555.1 -267.3C586.1 -224.9 635.8 -193.2 659.1 -150.4C682.4 -107.7 679.2 -53.8 676 0L0 0Z" fill="#c4258e"></path><path d="M0 -450.7C20.1 -376.2 40.2 -301.6 61.9 -271.3C83.6 -240.9 106.8 -254.8 118 -245.1C129.2 -235.3 128.4 -202 162.3 -203.5C196.1 -204.9 264.6 -241.2 303 -241.6C341.3 -242 349.4 -206.5 370.1 -178.2C390.7 -149.9 423.9 -128.8 439.4 -100.3C454.9 -71.8 452.8 -35.9 450.7 0L0 0Z" fill="#ed0e84"></path><path d="M0 -225.3C10.1 -188.1 20.1 -150.8 31 -135.6C41.8 -120.5 53.4 -127.4 59 -122.5C64.6 -117.7 64.2 -101 81.1 -101.7C98.1 -102.5 132.3 -120.6 151.5 -120.8C170.6 -121 174.7 -103.3 185 -89.1C195.4 -75 211.9 -64.4 219.7 -50.1C227.5 -35.9 226.4 -17.9 225.3 0L0 0Z" fill="#ff007c"></path></g></svg>