<svg id="visual" viewBox="0 0 900 600" width="900" height="600" xmlns="http://www.w3.org/2000/svg" xmlns:xlink="http://www.w3.org/1999/xlink" version="1.1"><g stroke-width="1" stroke-linejoin="bevel"><path d="M426.1 318L325.3 351L416.1 412Z" fill="#304451" stroke="#304451"></path><path d="M372.3 485L441.1 434L416.1 412Z" fill="#152430" stroke="#152430"></path><path d="M416.1 412L521.9 402L426.1 318Z" fill="#00101c" stroke="#00101c"></path><path d="M272.5 221L281.5 345L325.3 351Z" fill="#00101c" stroke="#00101c"></path><path d="M325.3 351L283.5 430L416.1 412Z" fill="#627f8c" stroke="#627f8c"></path><path d="M272.5 221L278.3 345L281.5 345Z" fill="#273946" stroke="#273946"></path><path d="M281.5 345L283.5 430L325.3 351Z" fill="#273946" stroke="#273946"></path><path d="M278.3 345L283.5 430L281.5 345Z" fill="#1e2f3b" stroke="#1e2f3b"></path><path d="M283.5 430L372.3 485L416.1 412Z" fill="#00101c" stroke="#00101c"></path><path d="M480.9 481L521.9 402L441.1 434Z" fill="#1e2f3b" stroke="#1e2f3b"></path><path d="M441.1 434L521.9 402L416.1 412Z" fill="#273946" stroke="#273946"></path><path d="M521.9 402L530.7 371L426.1 318Z" fill="#0c1b26" stroke="#0c1b26"></path><path d="M372.3 485L480.9 481L441.1 434Z" fill="#273946" stroke="#273946"></path><path d="M530.7 371L518.9 281L426.1 318Z" fill="#00101c" stroke="#00101c"></path><path d="M426.1 318L375.3 199L325.3 351Z" fill="#3a4f5c" stroke="#3a4f5c"></path><path d="M501.9 180L375.3 199L426.1 318Z" fill="#152430" stroke="#152430"></path><path d="M419.1 131L372.1 185L375.3 199Z" fill="#273946" stroke="#273946"></path><path d="M375.3 199L272.5 221L325.3 351Z" fill="#273946" stroke="#273946"></path><path d="M267.5 521L359.1 538L372.3 485Z" fill="#1e2f3b" stroke="#1e2f3b"></path><path d="M372.3 485L476.9 527L480.9 481Z" fill="#304451" stroke="#304451"></path><path d="M372.1 185L272.5 221L375.3 199Z" fill="#4d6774" stroke="#4d6774"></path><path d="M359.1 538L476.9 527L372.3 485Z" fill="#0c1b26" stroke="#0c1b26"></path><path d="M480.9 481L603.7 418L521.9 402Z" fill="#0c1b26" stroke="#0c1b26"></path><path d="M206.5 503L267.5 521L283.5 430Z" fill="#273946" stroke="#273946"></path><path d="M283.5 430L267.5 521L372.3 485Z" fill="#152430" stroke="#152430"></path><path d="M187.6 387L283.5 430L278.3 345Z" fill="#304451" stroke="#304451"></path><path d="M166.6 350L187.6 387L278.3 345Z" fill="#3a4f5c" stroke="#3a4f5c"></path><path d="M187.6 387L182.6 404L283.5 430Z" fill="#4d6774" stroke="#4d6774"></path><path d="M267.5 521L351.3 574L359.1 538Z" fill="#4d6774" stroke="#4d6774"></path><path d="M359.1 538L421.1 600L476.9 527Z" fill="#1e2f3b" stroke="#1e2f3b"></path><path d="M518.9 281L501.9 180L426.1 318Z" fill="#152430" stroke="#152430"></path><path d="M218.6 218L166.6 350L278.3 345Z" fill="#627f8c" stroke="#627f8c"></path><path d="M187.6 387L166.6 350L182.6 404Z" fill="#627f8c" stroke="#627f8c"></path><path d="M266.5 106L218.6 218L272.5 221Z" fill="#273946" stroke="#273946"></path><path d="M272.5 221L218.6 218L278.3 345Z" fill="#4d6774" stroke="#4d6774"></path><path d="M598.7 297L527.7 191L518.9 281Z" fill="#304451" stroke="#304451"></path><path d="M518.9 281L527.7 191L501.9 180Z" fill="#00101c" stroke="#00101c"></path><path d="M530.7 371L598.7 297L518.9 281Z" fill="#0c1b26" stroke="#0c1b26"></path><path d="M603.7 418L598.7 297L530.7 371Z" fill="#3a4f5c" stroke="#3a4f5c"></path><path d="M603.7 418L530.7 371L521.9 402Z" fill="#1e2f3b" stroke="#1e2f3b"></path><path d="M543.7 545L603.7 418L480.9 481Z" fill="#4d6774" stroke="#4d6774"></path><path d="M182.6 404L206.5 503L283.5 430Z" fill="#587380" stroke="#587380"></path><path d="M267.5 521L333.3 600L351.3 574Z" fill="#152430" stroke="#152430"></path><path d="M204.6 556L206.5 503L88.8 545Z" fill="#587380" stroke="#587380"></path><path d="M421.1 105L419.1 131L491.9 98Z" fill="#587380" stroke="#587380"></path><path d="M501.9 180L419.1 131L375.3 199Z" fill="#627f8c" stroke="#627f8c"></path><path d="M372.1 185L297.3 97L272.5 221Z" fill="#1e2f3b" stroke="#1e2f3b"></path><path d="M351.3 574L421.1 600L359.1 538Z" fill="#1e2f3b" stroke="#1e2f3b"></path><path d="M476.9 527L543.7 545L480.9 481Z" fill="#627f8c" stroke="#627f8c"></path><path d="M495.9 600L543.7 545L476.9 527Z" fill="#0c1b26" stroke="#0c1b26"></path><path d="M270.5 600L333.3 600L267.5 521Z" fill="#4d6774" stroke="#4d6774"></path><path d="M351.3 574L333.3 600L421.1 600Z" fill="#304451" stroke="#304451"></path><path d="M598.7 297L649.5 242L527.7 191Z" fill="#0c1b26" stroke="#0c1b26"></path><path d="M603.7 418L625.5 305L598.7 297Z" fill="#273946" stroke="#273946"></path><path d="M491.9 98L419.1 131L501.9 180Z" fill="#152430" stroke="#152430"></path><path d="M419.1 131L297.3 97L372.1 185Z" fill="#304451" stroke="#304451"></path><path d="M694.5 518L638.5 418L603.7 418Z" fill="#435b68" stroke="#435b68"></path><path d="M603.7 418L638.5 418L625.5 305Z" fill="#273946" stroke="#273946"></path><path d="M421.1 600L495.9 600L476.9 527Z" fill="#627f8c" stroke="#627f8c"></path><path d="M204.6 556L270.5 600L267.5 521Z" fill="#00101c" stroke="#00101c"></path><path d="M68.8 472L206.5 503L182.6 404Z" fill="#627f8c" stroke="#627f8c"></path><path d="M206.5 503L204.6 556L267.5 521Z" fill="#00101c" stroke="#00101c"></path><path d="M421.1 105L297.3 97L419.1 131Z" fill="#0c1b26" stroke="#0c1b26"></path><path d="M218.6 218L104.8 346L166.6 350Z" fill="#304451" stroke="#304451"></path><path d="M166.6 350L104.8 346L182.6 404Z" fill="#00101c" stroke="#00101c"></path><path d="M47.8 261L104.8 346L218.6 218Z" fill="#0c1b26" stroke="#0c1b26"></path><path d="M297.3 97L266.5 106L272.5 221Z" fill="#3a4f5c" stroke="#3a4f5c"></path><path d="M527.7 191L515.9 110L501.9 180Z" fill="#304451" stroke="#304451"></path><path d="M421.1 105L281.3 60L297.3 97Z" fill="#627f8c" stroke="#627f8c"></path><path d="M573.7 123L515.9 110L527.7 191Z" fill="#587380" stroke="#587380"></path><path d="M515.9 110L491.9 98L501.9 180Z" fill="#627f8c" stroke="#627f8c"></path><path d="M705.4 279L649.5 242L625.5 305Z" fill="#587380" stroke="#587380"></path><path d="M625.5 305L649.5 242L598.7 297Z" fill="#304451" stroke="#304451"></path><path d="M88.8 545L211.6 600L204.6 556Z" fill="#0c1b26" stroke="#0c1b26"></path><path d="M204.6 556L211.6 600L270.5 600Z" fill="#4d6774" stroke="#4d6774"></path><path d="M495.9 600L565.7 600L543.7 545Z" fill="#587380" stroke="#587380"></path><path d="M708.5 494L705.4 430L638.5 418Z" fill="#273946" stroke="#273946"></path><path d="M670.5 188L573.7 123L527.7 191Z" fill="#627f8c" stroke="#627f8c"></path><path d="M515.9 110L517.7 28L491.9 98Z" fill="#00101c" stroke="#00101c"></path><path d="M705.4 430L686.4 410L638.5 418Z" fill="#435b68" stroke="#435b68"></path><path d="M638.5 418L686.4 410L625.5 305Z" fill="#1e2f3b" stroke="#1e2f3b"></path><path d="M104.8 346L79.8 417L182.6 404Z" fill="#00101c" stroke="#00101c"></path><path d="M437.9 0L281.3 60L421.1 105Z" fill="#1e2f3b" stroke="#1e2f3b"></path><path d="M297.3 97L281.3 60L266.5 106Z" fill="#1e2f3b" stroke="#1e2f3b"></path><path d="M266.5 106L144.6 122L218.6 218Z" fill="#3a4f5c" stroke="#3a4f5c"></path><path d="M694.5 518L603.7 418L543.7 545Z" fill="#627f8c" stroke="#627f8c"></path><path d="M686.4 410L705.4 279L625.5 305Z" fill="#627f8c" stroke="#627f8c"></path><path d="M281.3 60L222.5 73L266.5 106Z" fill="#435b68" stroke="#435b68"></path><path d="M780.2 402L705.4 279L686.4 410Z" fill="#273946" stroke="#273946"></path><path d="M649.5 242L670.5 188L527.7 191Z" fill="#152430" stroke="#152430"></path><path d="M703.4 198L670.5 188L649.5 242Z" fill="#4d6774" stroke="#4d6774"></path><path d="M79.8 417L68.8 472L182.6 404Z" fill="#4d6774" stroke="#4d6774"></path><path d="M222.5 73L144.6 122L266.5 106Z" fill="#273946" stroke="#273946"></path><path d="M104.8 346L0 396L79.8 417Z" fill="#4d6774" stroke="#4d6774"></path><path d="M565.7 600L636.5 600L543.7 545Z" fill="#1e2f3b" stroke="#1e2f3b"></path><path d="M694.4 526L694.5 518L543.7 545Z" fill="#273946" stroke="#273946"></path><path d="M68.8 472L88.8 545L206.5 503Z" fill="#3a4f5c" stroke="#3a4f5c"></path><path d="M694.5 518L708.5 494L638.5 418Z" fill="#0c1b26" stroke="#0c1b26"></path><path d="M772.2 261L737.4 203L705.4 279Z" fill="#00101c" stroke="#00101c"></path><path d="M636.5 600L694.4 526L543.7 545Z" fill="#1e2f3b" stroke="#1e2f3b"></path><path d="M694.5 518L763.2 528L708.5 494Z" fill="#0c1b26" stroke="#0c1b26"></path><path d="M144.6 122L47.8 261L218.6 218Z" fill="#273946" stroke="#273946"></path><path d="M79.8 417L0 429L68.8 472Z" fill="#00101c" stroke="#00101c"></path><path d="M705.4 279L703.4 198L649.5 242Z" fill="#4d6774" stroke="#4d6774"></path><path d="M547.7 0L517.7 28L573.7 123Z" fill="#1e2f3b" stroke="#1e2f3b"></path><path d="M573.7 123L517.7 28L515.9 110Z" fill="#627f8c" stroke="#627f8c"></path><path d="M462.1 0L437.9 0L421.1 105Z" fill="#00101c" stroke="#00101c"></path><path d="M547.7 0L573.7 123L612.5 0Z" fill="#435b68" stroke="#435b68"></path><path d="M462.1 0L421.1 105L491.9 98Z" fill="#1e2f3b" stroke="#1e2f3b"></path><path d="M281.3 60L215.5 0L222.5 73Z" fill="#00101c" stroke="#00101c"></path><path d="M517.7 28L462.1 0L491.9 98Z" fill="#152430" stroke="#152430"></path><path d="M437.9 0L288.3 0L281.3 60Z" fill="#587380" stroke="#587380"></path><path d="M222.5 73L130.6 86L144.6 122Z" fill="#0c1b26" stroke="#0c1b26"></path><path d="M188.6 0L130.6 86L222.5 73Z" fill="#0c1b26" stroke="#0c1b26"></path><path d="M144.6 122L78.8 119L47.8 261Z" fill="#4d6774" stroke="#4d6774"></path><path d="M0 210L0 331L47.8 261Z" fill="#00101c" stroke="#00101c"></path><path d="M47.8 261L0 331L104.8 346Z" fill="#435b68" stroke="#435b68"></path><path d="M68.8 472L0 489L88.8 545Z" fill="#152430" stroke="#152430"></path><path d="M0 331L0 396L104.8 346Z" fill="#00101c" stroke="#00101c"></path><path d="M705.4 279L737.4 203L703.4 198Z" fill="#435b68" stroke="#435b68"></path><path d="M664.5 80L573.7 123L670.5 188Z" fill="#435b68" stroke="#435b68"></path><path d="M780.2 402L686.4 410L705.4 430Z" fill="#435b68" stroke="#435b68"></path><path d="M130.6 86L78.8 119L144.6 122Z" fill="#627f8c" stroke="#627f8c"></path><path d="M0 396L0 429L79.8 417Z" fill="#435b68" stroke="#435b68"></path><path d="M664.5 80L670.5 188L703.4 198Z" fill="#1e2f3b" stroke="#1e2f3b"></path><path d="M517.7 28L547.7 0L462.1 0Z" fill="#00101c" stroke="#00101c"></path><path d="M737.4 52L664.5 80L703.4 198Z" fill="#4d6774" stroke="#4d6774"></path><path d="M787.2 402L780.2 402L763.2 528Z" fill="#152430" stroke="#152430"></path><path d="M708.5 494L780.2 402L705.4 430Z" fill="#273946" stroke="#273946"></path><path d="M288.3 0L215.5 0L281.3 60Z" fill="#627f8c" stroke="#627f8c"></path><path d="M130.6 86L71.8 75L78.8 119Z" fill="#627f8c" stroke="#627f8c"></path><path d="M780.2 402L772.2 261L705.4 279Z" fill="#00101c" stroke="#00101c"></path><path d="M737.4 203L737.4 52L703.4 198Z" fill="#587380" stroke="#587380"></path><path d="M763.2 528L780.2 402L708.5 494Z" fill="#152430" stroke="#152430"></path><path d="M780.2 402L787.2 402L772.2 261Z" fill="#587380" stroke="#587380"></path><path d="M0 429L0 489L68.8 472Z" fill="#152430" stroke="#152430"></path><path d="M215.5 0L188.6 0L222.5 73Z" fill="#4d6774" stroke="#4d6774"></path><path d="M0 181L0 210L47.8 261Z" fill="#435b68" stroke="#435b68"></path><path d="M723.4 600L763.2 528L694.4 526Z" fill="#1e2f3b" stroke="#1e2f3b"></path><path d="M694.4 526L763.2 528L694.5 518Z" fill="#00101c" stroke="#00101c"></path><path d="M636.5 600L723.4 600L694.4 526Z" fill="#273946" stroke="#273946"></path><path d="M136.8 0L71.8 75L130.6 86Z" fill="#304451" stroke="#304451"></path><path d="M78.8 119L0 181L47.8 261Z" fill="#587380" stroke="#587380"></path><path d="M0 59L0 181L78.8 119Z" fill="#4d6774" stroke="#4d6774"></path><path d="M664.5 80L612.5 0L573.7 123Z" fill="#1e2f3b" stroke="#1e2f3b"></path><path d="M0 489L25.8 600L88.8 545Z" fill="#00101c" stroke="#00101c"></path><path d="M88.8 545L25.8 600L211.6 600Z" fill="#587380" stroke="#587380"></path><path d="M772.2 261L797.2 220L737.4 203Z" fill="#00101c" stroke="#00101c"></path><path d="M664.5 80L737.4 52L612.5 0Z" fill="#587380" stroke="#587380"></path><path d="M864.2 197L797.2 220L900 219Z" fill="#273946" stroke="#273946"></path><path d="M188.6 0L136.8 0L130.6 86Z" fill="#587380" stroke="#587380"></path><path d="M0 489L0 600L25.8 600Z" fill="#587380" stroke="#587380"></path><path d="M797.2 220L737.4 52L737.4 203Z" fill="#304451" stroke="#304451"></path><path d="M723.4 600L796.2 600L763.2 528Z" fill="#4d6774" stroke="#4d6774"></path><path d="M900 505L900 426L787.2 402Z" fill="#587380" stroke="#587380"></path><path d="M900 316L797.2 220L772.2 261Z" fill="#587380" stroke="#587380"></path><path d="M0 0L0 59L71.8 75Z" fill="#435b68" stroke="#435b68"></path><path d="M71.8 75L0 59L78.8 119Z" fill="#435b68" stroke="#435b68"></path><path d="M900 316L772.2 261L787.2 402Z" fill="#4d6774" stroke="#4d6774"></path><path d="M797.2 220L864.2 197L737.4 52Z" fill="#627f8c" stroke="#627f8c"></path><path d="M900 426L900 316L787.2 402Z" fill="#587380" stroke="#587380"></path><path d="M780.2 0L755.4 0L737.4 52Z" fill="#0c1b26" stroke="#0c1b26"></path><path d="M737.4 52L755.4 0L612.5 0Z" fill="#627f8c" stroke="#627f8c"></path><path d="M900 505L787.2 402L763.2 528Z" fill="#152430" stroke="#152430"></path><path d="M136.8 0L0 0L71.8 75Z" fill="#587380" stroke="#587380"></path><path d="M900 316L900 219L797.2 220Z" fill="#152430" stroke="#152430"></path><path d="M840.2 33L780.2 0L737.4 52Z" fill="#4d6774" stroke="#4d6774"></path><path d="M900 554L900 505L763.2 528Z" fill="#435b68" stroke="#435b68"></path><path d="M840.2 33L737.4 52L864.2 197Z" fill="#4d6774" stroke="#4d6774"></path><path d="M900 219L900 192L864.2 197Z" fill="#273946" stroke="#273946"></path><path d="M796.2 600L900 554L763.2 528Z" fill="#273946" stroke="#273946"></path><path d="M900 192L840.2 33L864.2 197Z" fill="#435b68" stroke="#435b68"></path><path d="M796.2 600L900 600L900 554Z" fill="#1e2f3b" stroke="#1e2f3b"></path><path d="M900 192L900 26L840.2 33Z" fill="#152430" stroke="#152430"></path><path d="M840.2 33L900 0L780.2 0Z" fill="#304451" stroke="#304451"></path><path d="M900 26L900 0L840.2 33Z" fill="#00101c" stroke="#00101c"></path></g></svg>