<svg id="visual" viewBox="0 0 1000 1000" width="1000" height="1000" xmlns="http://www.w3.org/2000/svg" xmlns:xlink="http://www.w3.org/1999/xlink" version="1.1"><rect x="0" y="0" width="1000" height="1000" fill="#002233"></rect><path d="M0 50L11.2 53.8C22.3 57.7 44.7 65.3 66.8 62.3C89 59.3 111 45.7 133.2 41.5C155.3 37.3 177.7 42.7 200 47.7C222.3 52.7 244.7 57.3 266.8 61.7C289 66 311 70 333.2 65.7C355.3 61.3 377.7 48.7 400 41.8C422.3 35 444.7 34 466.8 41C489 48 511 63 533.2 63C555.3 63 577.7 48 600 43.3C622.3 38.7 644.7 44.3 666.8 51.5C689 58.7 711 67.3 733.2 65C755.3 62.7 777.7 49.3 800 41.8C822.3 34.3 844.7 32.7 866.8 39.2C889 45.7 911 60.3 933.2 59.2C955.3 58 977.7 41 988.8 32.5L1000 24L1000 0L988.8 0C977.7 0 955.3 0 933.2 0C911 0 889 0 866.8 0C844.7 0 822.3 0 800 0C777.7 0 755.3 0 733.2 0C711 0 689 0 666.8 0C644.7 0 622.3 0 600 0C577.7 0 555.3 0 533.2 0C511 0 489 0 466.8 0C444.7 0 422.3 0 400 0C377.7 0 355.3 0 333.2 0C311 0 289 0 266.8 0C244.7 0 222.3 0 200 0C177.7 0 155.3 0 133.2 0C111 0 89 0 66.8 0C44.7 0 22.3 0 11.2 0L0 0Z" fill="#afeeee" stroke-linecap="round" stroke-linejoin="miter"></path></svg>