<?xml version="1.0" standalone="no"?>
<svg xmlns:xlink="http://www.w3.org/1999/xlink" id="wave" style="transform:rotate(180deg); transition: 0.3s" viewBox="0 0 1440 100" version="1.1" xmlns="http://www.w3.org/2000/svg"><defs><linearGradient id="sw-gradient-0" x1="0" x2="0" y1="1" y2="0"><stop stop-color="rgba(175, 238, 238, 1)" offset="0%"/><stop stop-color="rgba(175, 238, 238, 1)" offset="100%"/></linearGradient></defs><path style="transform:translate(0, 0px); opacity:1" fill="url(#sw-gradient-0)" d="M0,90L21.8,80C43.6,70,87,50,131,48.3C174.5,47,218,63,262,66.7C305.5,70,349,60,393,46.7C436.4,33,480,17,524,10C567.3,3,611,7,655,10C698.2,13,742,17,785,21.7C829.1,27,873,33,916,35C960,37,1004,33,1047,26.7C1090.9,20,1135,10,1178,13.3C1221.8,17,1265,33,1309,46.7C1352.7,60,1396,70,1440,76.7C1483.6,83,1527,87,1571,83.3C1614.5,80,1658,70,1702,68.3C1745.5,67,1789,73,1833,71.7C1876.4,70,1920,60,1964,61.7C2007.3,63,2051,77,2095,75C2138.2,73,2182,57,2225,55C2269.1,53,2313,67,2356,61.7C2400,57,2444,33,2487,20C2530.9,7,2575,3,2618,6.7C2661.8,10,2705,20,2749,31.7C2792.7,43,2836,57,2880,65C2923.6,73,2967,77,3011,78.3C3054.5,80,3098,80,3120,80L3141.8,80L3141.8,100L3120,100C3098.2,100,3055,100,3011,100C2967.3,100,2924,100,2880,100C2836.4,100,2793,100,2749,100C2705.5,100,2662,100,2618,100C2574.5,100,2531,100,2487,100C2443.6,100,2400,100,2356,100C2312.7,100,2269,100,2225,100C2181.8,100,2138,100,2095,100C2050.9,100,2007,100,1964,100C1920,100,1876,100,1833,100C1789.1,100,1745,100,1702,100C1658.2,100,1615,100,1571,100C1527.3,100,1484,100,1440,100C1396.4,100,1353,100,1309,100C1265.5,100,1222,100,1178,100C1134.5,100,1091,100,1047,100C1003.6,100,960,100,916,100C872.7,100,829,100,785,100C741.8,100,698,100,655,100C610.9,100,567,100,524,100C480,100,436,100,393,100C349.1,100,305,100,262,100C218.2,100,175,100,131,100C87.3,100,44,100,22,100L0,100Z"/></svg>